<svg width="21" height="26" viewBox="0 0 21 26" fill="none" xmlns="http://www.w3.org/2000/svg">
<g clip-path="url(#clip0_7089_22210)">
<g clip-path="url(#clip1_7089_22210)">
<path d="M5.60424 24.031C5.12751 23.8721 4.65077 23.5545 4.33295 22.9191C4.01513 22.6015 3.69731 22.1249 3.22058 21.4896C2.58493 20.5366 1.94929 19.2659 1.47256 17.9953C0.995825 16.5658 0.836914 15.1362 0.836914 13.7067C0.836914 12.1184 1.15474 10.8477 1.79038 9.73588C2.26711 8.78288 3.06167 8.14754 3.85622 7.5122C4.65077 7.0357 5.60424 6.71803 6.5577 6.71803C6.87553 6.71803 7.19335 6.71803 7.67008 6.87687C7.9879 6.87687 8.30572 7.0357 8.78246 7.19453C9.25919 7.35337 9.57701 7.5122 9.73592 7.5122C10.0537 7.67104 10.3716 7.67104 10.5305 7.67104C10.6894 7.67104 10.8483 7.67104 11.1661 7.5122C11.325 7.5122 11.6429 7.35337 11.9607 7.19453C12.2785 7.0357 12.5963 6.87687 12.9141 6.87687C13.232 6.87687 13.5498 6.71803 13.8676 6.71803C14.1854 6.71803 14.6622 6.5592 14.98 6.71803C15.6156 6.71803 16.2513 6.87687 16.8869 7.19453C17.8404 7.5122 18.6349 8.30637 19.2706 9.10054C19.1117 9.10054 18.7938 9.25938 18.6349 9.57705C18.1582 10.0535 17.6815 10.5301 17.3636 11.0066C17.0458 11.8007 16.728 12.5949 16.728 13.5479C16.728 14.6597 17.0458 15.6127 17.5226 16.4069C17.8404 17.0423 18.476 17.5188 18.9527 17.8364C19.4295 17.9953 19.7473 18.1541 19.9062 18.3129C19.9062 18.6306 19.7473 19.1071 19.5884 19.2659C19.2706 20.2189 18.7938 20.8543 18.3171 21.6484C17.8404 22.2838 17.5226 22.7603 17.3636 22.9191C16.8869 23.3956 16.5691 23.8721 16.0924 24.031C15.7745 24.3486 15.2978 24.5075 14.6622 24.5075C14.3443 24.5075 14.0265 24.5075 13.7087 24.3486C13.5498 24.3486 13.232 24.1898 12.9141 24.031C12.4374 23.8721 12.2785 23.7133 11.9607 23.7133C11.6429 23.5545 11.1661 23.5545 10.8483 23.5545C10.5305 23.5545 10.0537 23.5545 9.73592 23.7133C9.4181 23.7133 9.10028 23.8721 8.78246 24.031C8.30572 24.1898 8.14681 24.3486 7.9879 24.3486C7.67008 24.5075 7.35226 24.5075 7.03444 24.5075C6.5577 24.5075 6.08097 24.3486 5.60424 24.031ZM12.2785 5.92386C11.6429 6.24153 11.0072 6.40036 10.3716 6.40036C10.2127 5.76503 10.3716 5.12969 10.6894 4.33552C11.0072 3.70018 11.1661 3.22368 11.6429 2.74718C12.1196 2.27067 12.5963 1.79417 13.232 1.4765C13.8676 1.15883 14.5032 1 15.1389 1C15.1389 1.63534 14.98 2.27067 14.8211 3.06485C14.6622 3.70018 14.1854 4.17668 13.8676 4.65319C13.3909 5.28852 12.9141 5.60619 12.2785 5.92386Z" fill="#23262F"/>
</g>
</g>
<defs>
<clipPath id="clip0_7089_22210">
<rect width="20.7468" height="25.5084" fill="white"/>
</clipPath>
<clipPath id="clip1_7089_22210">
<rect width="20.7946" height="25.5943" fill="white" transform="translate(0.0600586 0.0424805)"/>
</clipPath>
</defs>
</svg>
