<svg width="26" height="26" viewBox="0 0 26 26" fill="none" xmlns="http://www.w3.org/2000/svg">
<g clip-path="url(#clip0_7089_22215)">
<path d="M14.7666 13.8684H14.2666V14.3684V14.4628V18.7296V25.5H10.9055V14.3684V13.8684H10.4055H7.99756V10.5072H10.4055H10.9055V10.0072V8.44587V8.09829C10.9055 6.57981 11.3685 5.3823 12.2242 4.56237C13.0821 3.74025 14.3983 3.23682 16.2226 3.23682H18.6305V6.59934H16.2226C15.9348 6.59934 15.6713 6.61956 15.4497 6.69209C15.204 6.77249 14.9985 6.92158 14.8724 7.16302C14.7629 7.37251 14.7397 7.60544 14.7318 7.79552C14.7264 7.92533 14.7278 8.0812 14.7292 8.24218C14.7298 8.31697 14.7305 8.39287 14.7305 8.46776V8.46821L14.7319 10.0063L14.7323 10.5059H15.2319H18.2191H18.5744L18.2242 13.8684H14.7666Z" fill="#3B5998" stroke="#3B5998"/>
</g>
<defs>
<clipPath id="clip0_7089_22215">
<rect width="26" height="26" fill="white"/>
</clipPath>
</defs>
</svg>
